<svg width="112" height="60" viewBox="0 0 112 60" fill="none" xmlns="http://www.w3.org/2000/svg">
  <!-- Modern hexagonal background -->
  <path d="M20 8l8 4.5v9l-8 4.5-8-4.5v-9z" fill="white" opacity="0.15"/>
  
  <!-- Central hub icon -->
  <circle cx="20" cy="17" r="3" fill="#A7FF37"/>
  <circle cx="12" cy="13" r="2" fill="#586CEC"/>
  <circle cx="28" cy="13" r="2" fill="#586CEC"/>
  <circle cx="12" cy="21" r="2" fill="#586CEC"/>
  <circle cx="28" cy="21" r="2" fill="#586CEC"/>
  
  <!-- Connection lines -->
  <line x1="20" y1="17" x2="14" y2="13" stroke="#A7FF37" stroke-width="1.5"/>
  <line x1="20" y1="17" x2="26" y2="13" stroke="#A7FF37" stroke-width="1.5"/>
  <line x1="20" y1="17" x2="14" y2="21" stroke="#A7FF37" stroke-width="1.5"/>
  <line x1="20" y1="17" x2="26" y2="21" stroke="#A7FF37" stroke-width="1.5"/>
  
  <!-- Modern book/education element -->
  <rect x="14" y="28" width="12" height="8" rx="2" fill="transparent" stroke="white" stroke-width="1.5"/>
  <line x1="16" y1="31" x2="24" y2="31" stroke="white" stroke-width="1"/>
  <line x1="16" y1="33" x2="22" y2="33" stroke="white" stroke-width="1"/>
  
  <!-- Company name with modern typography -->
  <text x="42" y="26" font-family="Arial, sans-serif" font-size="18" font-weight="700" fill="white">EduHub</text>
  <text x="42" y="40" font-family="Arial, sans-serif" font-size="9" fill="#E5E7EB">Empowering Minds</text>
</svg>